<svg xmlns="http://www.w3.org/2000/svg" viewBox="0 0 661 151.16"><defs><style>.cls-1{fill:#fff}</style></defs><g id="Camada_2" data-name="Camada 2"><g id="Camada_1-2" data-name="Camada 1"><path class="cls-1" d="M456.77 66.63v47.46h-20V39.93h20v.91a40 40 0 0 1 57 36.17v37.08h-20V77a20 20 0 0 0-34.11-14.15 20.18 20.18 0 0 0-2.89 3.78zm72.29-26.7a38.47 38.47 0 0 1 11.69-28.24A38.48 38.48 0 0 1 569 0h5.7v20H569a19.22 19.22 0 0 0-14.09 5.88A19.21 19.21 0 0 0 549 39.93h14.26v20H549v52.82a38.46 38.46 0 0 1-38.45 38.45v-20a18.5 18.5 0 0 0 18.48-18.48zM0 41.49h24.45a25.51 25.51 0 0 1 18.72 7.77A25.52 25.52 0 0 1 50.94 68a25.61 25.61 0 0 1-7.77 18.81 25.51 25.51 0 0 1-18.72 7.77H6.37v17H0zm24.45 6.37H6.37v40.32h18.08a19.38 19.38 0 0 0 14.22-5.9 20.19 20.19 0 0 0 0-28.53 19.39 19.39 0 0 0-14.22-5.89zm71.74 45.5a27 27 0 0 1-8.07 1.19H70v17h-6.32v-70h24.45A26.52 26.52 0 0 1 114.62 68a25.54 25.54 0 0 1-7.73 18.76 28.63 28.63 0 0 1-4.92 4l10.61 20.8h-7.13zm-8.06-45.5H70v40.32h18.13A20.15 20.15 0 0 0 108.25 68a20.15 20.15 0 0 0-20.12-20.14zm88.04 53.06H129.3l-4.92 10.61h-7l32.69-70h5.43l32.77 70h-7.13zm-3-6.37l-20.43-43.72-20.46 43.72zM148.66 33l5.09-19.1h6.71L155.37 33zm60.45 14.86h-20.2v-6.37h46.7v6.37h-20.13v63.68h-6.37zm41.35-6.37v70h-6.37v-70zM322.37 98l4.75 4.25-.51.51a37.2 37.2 0 0 1-52.55 0 35.84 35.84 0 0 1-10.87-26.32 37.1 37.1 0 0 1 37.19-37.1 35.75 35.75 0 0 1 26.23 10.87l.76.76-4.58 4.42-.68-.68a30.78 30.78 0 0 0-52.55 21.73 30.8 30.8 0 0 0 52.55 21.82zm70.04-47.77a35.75 35.75 0 0 1 10.87 26.23 35.85 35.85 0 0 1-10.87 26.32 37.2 37.2 0 0 1-52.55 0A35.84 35.84 0 0 1 329 76.47a37.1 37.1 0 0 1 37.19-37.1 35.75 35.75 0 0 1 26.22 10.86zm-26.23-4.5a30.73 30.73 0 0 0-30.82 30.73 30.78 30.78 0 1 0 61.55 0 30.73 30.73 0 0 0-30.73-30.73zm253.41 58.89h14.59v14.59h-14.59zm18.27 15.03h10.54v10.54h-10.54zm15.55-8.03H661v7.59h-7.59z"/><path class="cls-1" d="M622.37 41.89a39.67 39.67 0 0 0-37.31 68.68 3.27 3.27 0 0 0 .53.41 39.61 39.61 0 0 0 24.41 8.15 9.14 9.14 0 0 0 1.32-.08l.07-14.54s-6.22-.09-6.29-.09c-14.94 0-19-15.43-19.68-17.87h63c3.84-18.89-7.5-38.28-26.05-44.66zm-36.56 29.56c2-9.29 12.1-16.94 23.22-17.29 10.91-.34 21.41 7.18 24.29 17.24z"/></g></g></svg>